<?xml version="1.0" standalone="no"?>
<!DOCTYPE svg PUBLIC "-//W3C//DTD SVG 20010904//EN"
 "http://www.w3.org/TR/2001/REC-SVG-20010904/DTD/svg10.dtd">
<svg version="1.0" xmlns="http://www.w3.org/2000/svg"
 width="512.000000pt" height="512.000000pt" viewBox="0 0 512.000000 512.000000"
 preserveAspectRatio="xMidYMid meet">
<metadata>
Created by potrace 1.11, written by Peter Selinger 2001-2013
</metadata>
<g transform="translate(0.000000,512.000000) scale(0.100000,-0.100000)"
fill="#000000" stroke="none">
<path d="M0 2560 l0 -2560 2560 0 2560 0 0 2560 0 2560 -2560 0 -2560 0 0
-2560z m3397 2199 c38 -14 71 -46 94 -91 57 -110 -28 -238 -158 -238 -58 0
-104 26 -141 80 -20 30 -23 44 -20 97 5 73 25 107 84 140 42 25 96 29 141 12z
m-440 -1210 l42 -18 -38 -98 c-21 -54 -296 -768 -611 -1588 -316 -820 -574
-1491 -575 -1493 -1 -1 -30 8 -64 20 -46 17 -60 26 -56 38 3 8 279 725 612
1592 563 1462 609 1578 628 1572 11 -4 39 -15 62 -25z"/>
</g>
</svg>
